<svg xmlns="http://www.w3.org/2000/svg" xmlns:xlink="http://www.w3.org/1999/xlink" width="1600" height="900" viewBox="0 0 1600 900"><defs><clipPath id="a"><rect width="1600" height="900" fill="#fff"/></clipPath><radialGradient id="b" cx="0.259" cy="0.464" r="0.946" gradientTransform="translate(0 -0.137) scale(1 1.295)" gradientUnits="objectBoundingBox"><stop offset="0" stop-color="#144e64"/><stop offset="1"/></radialGradient><radialGradient id="c" cx="0.373" cy="0.276" r="1.074" gradientTransform="translate(0.023 -0.028) rotate(4.455)" gradientUnits="objectBoundingBox"><stop offset="0" stop-color="#005e7e" stop-opacity="0"/><stop offset="1" stop-color="#009da9"/></radialGradient><radialGradient id="d" cx="0.373" cy="0.276" r="1.074" gradientTransform="translate(0.023 -0.028) rotate(4.455)" gradientUnits="objectBoundingBox"><stop offset="0" stop-color="#005e7e"/><stop offset="1" stop-color="#009da9"/></radialGradient><radialGradient id="e" cx="0.373" cy="0.276" r="1.074" gradientTransform="translate(0.023 -0.028) rotate(4.455)" gradientUnits="objectBoundingBox"><stop offset="0" stop-color="#009da9"/><stop offset="1" stop-color="#009da9" stop-opacity="0.502"/></radialGradient><radialGradient id="f" cx="-0.096" cy="0.5" r="0.98" gradientTransform="matrix(0.954, -0.3, 0.165, 0.524, -0.087, 0.209)" gradientUnits="objectBoundingBox"><stop offset="0" stop-color="#005e7e" stop-opacity="0"/><stop offset="0" stop-color="#006f89" stop-opacity="0.267"/><stop offset="0" stop-color="#008095" stop-opacity="0.541"/><stop offset="1" stop-color="#009da9"/></radialGradient><radialGradient id="k" cx="0.373" cy="0.276" r="1.074" gradientTransform="translate(0.023 -0.028) rotate(4.455)" gradientUnits="objectBoundingBox"><stop offset="0" stop-color="#005e7e"/><stop offset="1" stop-color="#009da9" stop-opacity="0"/></radialGradient></defs><g clip-path="url(#a)"><rect width="1600" height="900" fill="url(#b)"/><path d="M352.971,21.422c38.687,52.721,58.41,108.477,67.134,164.611,8.344,56.514,6.069,113.407-17.827,160.439C378,393.5,331.731,429.916,275.976,458.742c-56.135,29.205-122.131,50.066-175.99,32.619s-95.2-73.582-126.3-132.751C-57.8,299.061-79.038,236.479-68.039,179.965-57.04,123.83-14.18,74.143,35.507,23.318c50.066-51.2,106.2-103.546,163.473-104.3C256.253-82.124,314.284-31.679,352.971,21.422Z" transform="translate(755.974 760.853)" opacity="0.617" fill="url(#c)"/><path d="M876.613,63.369c133.741,89.161,257.389,213.65,264.959,346.55,7.57,132.059-101.778,270.847-207.762,373.466C828.668,885.163,726.049,950.772,608.29,1010.493c-118.6,59.721-252.342,114.4-366.737,84.955C128,1066.008,33.791,953.3-15.836,832.171c-48.786-121.124-53.833-250.66-35.328-380.2,18.505-128.694,61.4-256.548,148.882-354.12C186.037.284,318.937-66.166,458.567-72.9,597.355-79.624,742.031-26.633,876.613,63.369Z" transform="translate(1075.079 -105.532)" opacity="0.098" fill="url(#d)"/><path d="M396.025-14.675c56.522,16.765,114.481,55.564,123.1,104.9,9.1,49.816-30.656,109.691-65.623,157.591-34.967,47.421-65.623,82.388-102.027,118.792s-78.556,74.724-130.767,87.657C168.5,467.678,107.188,455.7,50.666,425.526-5.377,395.349-56.63,347.449-60.462,293.8c-4.311-53.648,38.8-113.044,61.791-177.23S27.674-16.112,62.641-39.583c34.488-23.471,101.069-.958,161.9,7.185C284.9-24.734,339.982-30.961,396.025-14.675Z" transform="translate(550.763 -237.86)" opacity="0.175" fill="url(#e)"/><path d="M264.046-.494C298.055,5.652,332.473,24.5,341.9,53.592c9.014,29.091-7.375,68.426-6.146,108.58s20.077,80.718,13.112,113.087c-7.375,31.959-40.974,55.724-76.211,85.225-35.647,29.5-72.523,65.148-103.663,54.495-31.14-10.243-56.544-66.787-91.781-96.288S-3.512,286.322-29.325,264.606c-25.4-21.716-31.14-62.28-11.473-91.781S23.941,125.3,37.052,81.863C49.754,38.431,31.316-30.4,46.886-47.613c15.57-16.8,65.968,18.028,107.761,32.369S230.038-7.05,264.046-.494Z" transform="translate(1332.948 -54.907)" opacity="0.14" fill="url(#f)"/><path d="M512.109,125.149c32.883,23.018,63.793,44.063,117.72,73,53.928,29.595,130.216,67.081,184.8,136.135S901.441,503.3,873.82,577.616C845.541,651.932,757.415,699.94,670.6,753.868s-172.964,113.117-241.36,83.522C360.848,807.138,309.551,688.1,220.11,636.148,130.668,583.535,3.083,598-47.556,553.941-97.538,509.22-71.232,405.968-12.043,336.914S139.218,233,172.758,159.347c33.54-73,9.865-184.144,40.117-208.477C243.128-72.805,327.965-9.67,386.5,33.735,445.686,77.8,479.884,102.131,512.109,125.149Z" transform="translate(-118.261 494.284)" opacity="0.272" fill="url(#d)"/><path d="M648.108,72.5c58.254,54.261,103.353,105.808,120.265,169.564,16.912,63.3,4.385,138.816-53.869,177.251C656.251,458.2,551.646,459.56,441.4,463.63c-109.617,3.617-224.871,9.948-328.224-28.939C10.451,396.256-81,313.057-84.759,226.692-89.144,140.328-7.088,50.8,96.266-3.463c102.727-54.261,226.75-73.7,324.466-54.713S589.855,18.242,648.108,72.5Z" transform="translate(-27.326 299.199)" opacity="0.142" fill="url(#d)"/><path d="M467.847,9.52c49.171,46.6,74.238,95.872,85.325,145.484,10.605,49.947,7.713,100.23-22.657,141.8-30.852,41.567-89.664,73.748-160.527,99.224-71.345,25.812-155.225,44.249-223.678,28.829s-121-65.032-160.527-117.326C-54.228,254.9-81.224,199.588-67.244,149.641-53.264,100.029,1.209,56.115,64.359,11.2c63.632-45.254,134.978-91.514,207.77-92.185C344.921-81.994,418.676-37.41,467.847,9.52Z" transform="translate(-109.857 -86.9)" opacity="0.4" fill="url(#c)"/><path d="M645.071-4.862C732.41,16.564,821.969,66.15,835.291,129.2c14.063,63.667-47.37,140.189-101.4,201.407-54.031,60.606-101.4,105.295-157.653,151.82s-121.386,95.5-202.063,112.029C293.5,611.6,198.757,596.3,111.418,557.729,24.82,519.162-54.377,457.944-60.3,389.38-66.96,320.816-.346,244.906,35.182,162.874S75.891-6.7,129.922-36.7c53.291-30,156.173-1.224,250.173,9.183C473.355-17.718,558.473-25.677,645.071-4.862Z" transform="matrix(-0.017, -1, 1, -0.017, 1259.348, 988.697)" opacity="0.57" fill="url(#c)"/><path d="M640.679-38.094c69.226,46.342,116.712,124.15,125.294,203.1,8.582,79.524-21.741,159.049-28.034,235.713-6.293,76.092,10.87,148.751-10.3,205.963s-80.669,99.549-143.03,90.395c-62.933-9.726-129.3-71.515-184.794-90.967-54.923-18.88-98.976,4-179.073,24.029-80.1,19.452-196.237,35.471-255.737-2.861-60.072-38.332-62.933-130.443-9.154-192.232,53.779-61.217,164.2-92.111,215.689-143.6,51.491-52.063,44.625-125.866,70.943-196.809s86.39-139.6,161.91-166.486C480.486-99.31,571.452-84.435,640.679-38.094Z" transform="translate(438.383 32.604)" opacity="0.135" fill="url(#k)"/></g></svg>