<svg xmlns="http://www.w3.org/2000/svg" xmlns:xlink="http://www.w3.org/1999/xlink" width="350" height="632" viewBox="0 0 350 632"><defs><clipPath id="a"><rect width="350" height="632" transform="translate(1250 2193)" fill="#fff"/></clipPath><radialGradient id="b" cx="0.351" cy="0.346" r="0.516" gradientTransform="matrix(0.991, -0.133, 0.251, 1.874, -0.062, -0.182)" gradientUnits="objectBoundingBox"><stop offset="0" stop-color="#005e7e" stop-opacity="0"/><stop offset="1" stop-color="#009da9"/></radialGradient></defs><g transform="translate(-1250 -2193)" clip-path="url(#a)"><path d="M410.4,47.991C466.854,87.507,539.769,90.329,591.986,124.2s83.735,98.318,57.862,148.183C623.5,322.248,540.24,357.059,500.254,411.628c-39.986,55.04-37.163,129.837-67.271,135.952-30.107,5.645-93.144-56.921-155.24-59.744-61.625-2.823-121.369,54.569-180.643,64.918-58.8,10.82-116.195-25.4-146.772-77.149-30.578-52.217-33.87-119.958-5.175-171.7,28.7-51.276,89.851-85.617,125.6-128.9s46.1-94.555,76.209-149.124c30.107-54.1,79.5-111.49,124.192-102.552C315.377-67.263,354.423,8.476,410.4,47.991Z" transform="translate(1324.599 2270.327)" opacity="0.08" fill="url(#b)"/></g></svg>