<svg xmlns="http://www.w3.org/2000/svg" xmlns:xlink="http://www.w3.org/1999/xlink" width="242" height="678" viewBox="0 0 242 678"><defs><clipPath id="a"><rect width="242" height="678" transform="translate(0 3118)" fill="#fff"/></clipPath><radialGradient id="b" cx="0.708" cy="0.449" r="0.809" gradientTransform="translate(0 0.093) scale(1 0.792)" gradientUnits="objectBoundingBox"><stop offset="0" stop-color="#005e7e" stop-opacity="0"/><stop offset="1" stop-color="#009da9"/></radialGradient></defs><g transform="translate(0 -3118)" clip-path="url(#a)"><path d="M456.879,54.766c66.108,52.886,142.894,95.6,184.084,168.32,40.682,73.227,46.275,175.948,0,242.055-46.275,66.616-144.419,96.11-235.953,118.994-92.042,22.883-177.473,39.156-269.515,26.443-92.551-12.713-192.22-53.9-202.9-122.553S.229,323.264,41.419,244.444c41.7-78.82,46.275-141.368,79.838-199.848S217.366-68.3,275.846-64.228C334.834-60.159,390.771,1.88,456.879,54.766Z" transform="matrix(0.899, 0.438, -0.438, 0.899, -248.298, 3067.794)" opacity="0.08" fill="url(#b)"/></g></svg>