<svg xmlns="http://www.w3.org/2000/svg" xmlns:xlink="http://www.w3.org/1999/xlink" width="231" height="592" viewBox="0 0 231 592"><defs><clipPath id="a"><rect width="231" height="592" transform="translate(1369 1058)" fill="#fff"/></clipPath><radialGradient id="b" cx="0.373" cy="0.276" r="1.074" gradientTransform="translate(0.023 -0.028) rotate(4.455)" gradientUnits="objectBoundingBox"><stop offset="0" stop-color="#005e7e" stop-opacity="0"/><stop offset="1" stop-color="#009da9"/></radialGradient></defs><g transform="translate(-1369 -1058)" clip-path="url(#a)"><path d="M352.971,21.422c38.687,52.721,58.41,108.477,67.134,164.611,8.344,56.514,6.069,113.407-17.827,160.439C378,393.5,331.731,429.916,275.976,458.742c-56.135,29.205-122.131,50.066-175.99,32.619s-95.2-73.582-126.3-132.751C-57.8,299.061-79.038,236.479-68.039,179.965-57.04,123.83-14.18,74.143,35.507,23.318c50.066-51.2,106.2-103.546,163.473-104.3C256.253-82.124,314.284-31.679,352.971,21.422Z" transform="translate(1439.974 1151.853)" opacity="0.08" fill="url(#b)"/></g></svg>