<svg xmlns="http://www.w3.org/2000/svg" xmlns:xlink="http://www.w3.org/1999/xlink" width="208.189" height="48" viewBox="0 0 208.189 48"><defs><radialGradient id="a" cx="1.843" cy="-0.58" r="2.621" gradientTransform="translate(-1.5) scale(4 1)" gradientUnits="objectBoundingBox"><stop offset="0" stop-color="#009da9"/><stop offset="0.835" stop-color="#005a7a"/><stop offset="0.989" stop-color="#005171"/></radialGradient><radialGradient id="b" cx="-2.185" cy="-0.555" r="2.608" gradientTransform="translate(-0.281) scale(1.561 1)" gradientUnits="objectBoundingBox"><stop offset="0" stop-color="#009da9"/><stop offset="1" stop-color="#005171"/></radialGradient><radialGradient id="c" cx="0.329" cy="-0.364" r="1.586" gradientTransform="translate(-0.479) scale(1.958 1)" xlink:href="#b"/><radialGradient id="d" cx="0.156" cy="0.094" r="1.044" gradientTransform="translate(-0.051) scale(1.103 1)" xlink:href="#b"/></defs><g transform="translate(53.868 2.355)"><path d="M197.434,96.974c-7.5,0-10.454-5.9-10.454-11.755,0-8.754,5.852-12.605,11.354-12.605a11.969,11.969,0,0,1,5.2.9,2.154,2.154,0,0,1,1.4,2,16.946,16.946,0,0,1-.7,3.9h-1.45a6.847,6.847,0,0,0-1.3-3.3,4.2,4.2,0,0,0-3.451-1.25c-4.952,0-7.5,3.751-7.5,9.8,0,5.5,3.1,9.2,7.653,9.2a10.214,10.214,0,0,0,6.6-2.351l1.15,1.2A10.316,10.316,0,0,1,197.434,96.974Z" transform="translate(-186.98 -62.159)" fill="#005e7e"/><path d="M246.708,96.274c-1.751,0-3.4,0-5.2.1V94.623c2-.1,2.7-.3,3-.55.4-.35.4-1.051.4-2.351v-11c0-2.151-.35-3.2-.7-3.7s-.85-1-2.6-1.6v-.95a9.018,9.018,0,0,1,4.4-1.5c1.15,0,1.8.7,1.951,2.251a28.125,28.125,0,0,1,.1,2.951l.15.05a6.564,6.564,0,0,1,6.553-5.6c1.5,0,2.3.4,2.3,1.3a12.427,12.427,0,0,1-.65,3.051,7.114,7.114,0,0,0-3.2-.7,4.476,4.476,0,0,0-4.5,3.251,9.4,9.4,0,0,0-.4,2.851v9.354c0,1.5.1,1.851.5,2.251.25.3,1,.5,3.551.65v1.751C251.01,96.274,248.359,96.274,246.708,96.274Z" transform="translate(-221.596 -62.159)" fill="#005e7e"/><path d="M294.593,96.974c-7.1,0-10.754-4.8-10.754-12.055,0-8.1,5.052-12.305,10.655-12.305,5.452,0,8.3,3.451,8.3,8.854a7.1,7.1,0,0,1-.3,1.9l-.651.4H287.34c0,8,4.352,10.1,8.053,10.1a11.619,11.619,0,0,0,6.653-2.051l1,1.2A10.888,10.888,0,0,1,294.593,96.974Zm4.552-15.207a7.741,7.741,0,0,0,.05-1.1c0-3.652-1.5-5.9-5-5.9-4.252,0-6.3,2.8-6.653,7Z" transform="translate(-248.472 -62.159)" fill="#005e7e"/><path d="M356.831,96.974c-2,0-2.851-1.851-2.9-4l-.15-.1a7.24,7.24,0,0,1-6.753,4.1c-5.352,0-7.153-3.652-7.153-6.2a5.063,5.063,0,0,1,2.951-4.952,22.538,22.538,0,0,1,9-1.5c.6,0,1.1,0,1.7.05v-2.2a11.856,11.856,0,0,0-.65-4.3c-.8-1.6-2.3-2.2-4.5-2.2a11.379,11.379,0,0,0-6.052,1.751l-.8-1.2a10.437,10.437,0,0,1,8.1-3.6c2.7,0,4.652.65,6.053,2.351,1,1.3,1.3,3.8,1.3,5.4,0,4-.15,5.852-.15,9.8a7.007,7.007,0,0,0,.6,3.252,1.784,1.784,0,0,0,1.3.75,14.267,14.267,0,0,0,2.1-.15l.4,1.2A6.91,6.91,0,0,1,356.831,96.974Zm-3.3-10.8h-.6a20.173,20.173,0,0,0-7.253,1.05,3.057,3.057,0,0,0-2.1,3.152c0,1.651,1.151,3.8,4.352,3.8a6.132,6.132,0,0,0,4.5-1.551,4.517,4.517,0,0,0,1.1-3.1Z" transform="translate(-284.046 -62.159)" fill="#005e7e"/><path d="M407.524,88.1c-2.251,0-3.5-.75-4.2-2-.651-1.151-.8-2.551-.8-5.552,0-3.451.05-9.354.1-13.306h-3.7v-1.55a5.5,5.5,0,0,0,3.5-1.851c.5-.6,1-1.951,1.35-5.2h2.1v6h5.852v2.6h-5.8V80.549c0,2.451.25,3.452.75,4a3.3,3.3,0,0,0,2.351.85,6.933,6.933,0,0,0,3.251-.75l.7,1.351A7.763,7.763,0,0,1,407.524,88.1Z" transform="translate(-321.533 -53.288)" fill="#005e7e"/><path d="M444.808,78.1c-1.751,0-2.851,0-4.652.1V76.446c2.051-.15,2.651-.3,3-.6.4-.3.4-1,.4-2.3V62.34c0-2-.2-2.8-.5-3.3a4.829,4.829,0,0,0-2.651-1.8v-1a13.5,13.5,0,0,1,5.2-1.451c1.15,0,1.451.85,1.451,2.651,0,1-.1,5.6-.1,7.253v8.954c0,1.3,0,1.9.4,2.251.35.3,1.1.45,3.151.55V78.2C449.16,78.1,446.459,78.1,444.808,78.1Zm-.2-28.612a2.484,2.484,0,0,1-2.551-2.7,2.563,2.563,0,0,1,2.651-2.8,2.474,2.474,0,0,1,2.551,2.751A2.548,2.548,0,0,1,444.608,49.484Z" transform="translate(-347.712 -43.982)" fill="#005e7e"/><path d="M484.674,96.974c-6.4,0-10.955-3.952-10.955-11.9,0-8.4,5.5-12.455,11.2-12.455,6.753,0,10.755,4.3,10.755,11.8C495.678,92.322,491.077,96.974,484.674,96.974Zm.1-22.21c-3.1,0-7.153,1.8-7.153,9.9,0,7.253,2.851,10.2,7.153,10.2,4.352,0,7.053-3.1,7.053-9.954C491.827,77.015,488.725,74.765,484.774,74.765Z" transform="translate(-369.02 -62.159)" fill="#005e7e"/><path d="M545.363,96.36c-1.751,0-2.851,0-4.652.1V94.709c2-.1,2.651-.3,3-.6.4-.3.4-1,.4-2.3V81.1c0-2.251-.3-3.451-.7-4s-.8-1-2.6-1.6v-.95a8.892,8.892,0,0,1,4.4-1.5c1.2,0,1.9.8,2.051,2.7.05.55.05,1.7.05,2.4l.15.05c.7-3,3.5-5.453,8.054-5.453,3.8,0,5.952,2.1,6.5,4.552a22.181,22.181,0,0,1,.3,4.4V91.958c0,1.251,0,1.851.45,2.2.35.3,1.1.45,3.1.55V96.46c-1.35-.1-3.852-.1-5.5-.1-1.75,0-2.951,0-4.752.1V94.709c2.1-.1,2.6-.25,2.951-.55.4-.4.4-1.1.4-2.351V81.754a9.075,9.075,0,0,0-.8-4.1c-.75-1.2-2.2-1.751-4-1.751-3.9,0-5.553,1.951-6.153,3.3a8.516,8.516,0,0,0-.5,2.951v9.8c0,1.2,0,1.851.4,2.2.35.3,1.1.45,3.1.55V96.46C549.615,96.36,547.014,96.36,545.363,96.36Z" transform="translate(-411.55 -62.246)" fill="#005e7e"/></g><path d="M43.831,98.911c.4-.3.4-1,.4-2.3v-10.7c0-2.251-.3-3.451-.7-4s-.8-1-2.571-1.591a24.019,24.019,0,0,0,1.029,19.115A3.288,3.288,0,0,0,43.831,98.911Z" transform="translate(-39.453 -64.692)" fill="url(#a)"/><path d="M147.838,79.131a6.658,6.658,0,0,0-4.526,2.472l-6.1,6.253a81.6,81.6,0,0,0,6.453,7.853,11.871,11.871,0,0,0,2.951,2.4,3.311,3.311,0,0,0,.536.234,24.025,24.025,0,0,0,.689-19.213Z" transform="translate(-101.515 -63.942)" fill="url(#b)"/><path d="M65.176,87.233a9.071,9.071,0,0,0-.8-4.1c-.75-1.2-2.2-1.751-4-1.751-3.9,0-5.553,1.951-6.153,3.3a8.516,8.516,0,0,0-.5,2.951v9.8c0,1.2,0,1.851.4,2.2.35.3,1.1.45,3.1.55v1.751c-1.4-.1-4-.1-5.652-.1-.964,0-1.732,0-2.527.018a24.016,24.016,0,0,0,16.134,11.11Z" transform="translate(-45.541 -65.37)" fill="url(#c)"/><path d="M83.337,72.3a106.8,106.8,0,0,1-8.2-9.954,70.048,70.048,0,0,0,6.1-6.5c.4-.5,1.251-1.451,1.251-2.151a.821.821,0,0,0-.8-.8,14.956,14.956,0,0,0-2.051-.2V50.942c1.7.1,3.552.1,4.852.1.674,0,2.307,0,4.061-.06a24.067,24.067,0,0,0-13.9-12.195c-.028,6.2-.064,13.727-.064,16.007V69.6c0,1.2,0,1.851.45,2.2.3.3,1,.45,3.1.55V74.1c-1.6-.1-4-.1-5.652-.1-1.75,0-2.9,0-4.7.1V72.352c2.051-.15,2.7-.3,3.051-.6s.35-1,.35-2.3V37.905A23.976,23.976,0,0,0,45.025,51.862a8.444,8.444,0,0,1,3.844-1.17c1.2,0,1.9.8,2.051,2.7.05.55.05,1.7.05,2.4l.15.05c.7-3,3.5-5.453,8.053-5.453,3.8,0,5.953,2.1,6.5,4.552a22.187,22.187,0,0,1,.3,4.4V85.507c.336.014.674.026,1.014.026A23.982,23.982,0,0,0,87.423,74.124,5.775,5.775,0,0,1,83.337,72.3Z" transform="translate(-42.99 -37.533)" fill="url(#d)"/></svg>