<svg xmlns="http://www.w3.org/2000/svg" xmlns:xlink="http://www.w3.org/1999/xlink" width="753.572" height="716.676" viewBox="0 0 753.572 716.676"><defs><radialGradient id="a" cx="0.266" cy="0.596" r="0.702" gradientTransform="matrix(0.648, 0.761, -0.7, 0.596, 0.51, 0.038)" gradientUnits="objectBoundingBox"><stop offset="0" stop-color="#005e7e" stop-opacity="0"/><stop offset="1" stop-color="#009da9"/></radialGradient><radialGradient id="b" cx="0.436" cy="0.5" r="0.841" gradientTransform="translate(0 0.077) scale(1 0.846)" xlink:href="#a"/></defs><g transform="translate(-361.823 -1531.275)"><path d="M228.257-13.837c33.663.615,85.36-10.769,94.377,3.385,9.017,14.461-24.346,54.461-19.537,97.538,5.11,43.077,48.992,88.922,42.981,108.615s-61.916,12.923-100.689,27.692c-39.073,14.461-61.014,50.461-88.666,60-27.351,9.538-60.113-7.692-101.59-20.923s-91.371-22.461-116.318-51.384C-86.132,181.854-85.832,132.931-68.7,94.162s51.1-67.692,80.25-89.23C40.705-16.3,65.051-30.452,89.4-36.606s48.691-4.615,68.829,2.462C178.363-26.76,194.293-14.144,228.257-13.837Z" transform="translate(768.752 1696.774)" opacity="0.08" fill="url(#a)"/><path d="M389.94-63.265c54.091-6.459,104.146,31.89,94.054,82.348-10.5,50.055-81.137,112.623-104.146,161.87-23.413,48.844.807,84.77.807,117.063,0,32.7-24.22,61.761-55.3,68.623-30.679,6.459-68.22-9.284-108.99-3.633C176,368.255,132,394.9,97.282,390.456c-35.119-4.037-61.357-39.559-83.963-77.5C-9.69,275.008-29.47,234.641-48.442,183.375S-85.983,69.541-58.13,40.074C-30.681,10.606,43.19,13.835,97.282,19.89c54.091,6.459,88,16.147,134.421-4.844C277.721-5.541,335.849-56.806,389.94-63.265Z" transform="translate(726.375 1627) rotate(56)" opacity="0.08" fill="url(#b)"/></g></svg>