<svg xmlns="http://www.w3.org/2000/svg" width="28.056" height="27.355" viewBox="0 0 28.056 27.355"><path d="M9.384,22.588c0,.113-.13.2-.294.2-.187.017-.317-.074-.317-.2,0-.113.13-.2.294-.2C9.237,22.368,9.384,22.458,9.384,22.588Zm-1.759-.255c-.04.113.074.243.243.277a.265.265,0,0,0,.351-.113c.034-.113-.074-.243-.243-.294A.29.29,0,0,0,7.625,22.334Zm2.5-.1c-.164.04-.277.147-.26.277.017.113.164.187.334.147s.277-.147.26-.26S10.289,22.221,10.125,22.238ZM13.847.563A13.563,13.563,0,0,0,0,14.364a14.181,14.181,0,0,0,9.588,13.53c.724.13.979-.317.979-.684,0-.351-.017-2.285-.017-3.473,0,0-3.959.848-4.791-1.686,0,0-.645-1.646-1.572-2.07,0,0-1.3-.888.091-.871A2.986,2.986,0,0,1,6.46,20.569a2.99,2.99,0,0,0,4.124,1.182,3.144,3.144,0,0,1,.905-1.906c-3.162-.351-6.352-.809-6.352-6.25a4.287,4.287,0,0,1,1.335-3.332,5.344,5.344,0,0,1,.147-3.841c1.182-.368,3.9,1.527,3.9,1.527a13.363,13.363,0,0,1,7.1,0s2.721-1.9,3.9-1.527a5.342,5.342,0,0,1,.147,3.841,4.4,4.4,0,0,1,1.459,3.332c0,5.458-3.332,5.894-6.494,6.25A3.345,3.345,0,0,1,17.6,22.47c0,1.906-.017,4.265-.017,4.729,0,.368.26.815.979.684a14.05,14.05,0,0,0,9.491-13.519A13.869,13.869,0,0,0,13.847.563ZM5.5,20.071c-.074.057-.057.187.04.294.091.091.221.13.294.057.074-.057.057-.187-.04-.294C5.7,20.037,5.572,20,5.5,20.071Zm-.611-.458c-.04.074.017.164.13.221a.168.168,0,0,0,.243-.04c.04-.074-.017-.164-.13-.221C5.017,19.54,4.927,19.557,4.887,19.613ZM6.72,21.627c-.091.074-.057.243.074.351.13.13.294.147.368.057.074-.074.04-.243-.074-.351C6.963,21.553,6.793,21.536,6.72,21.627ZM6.075,20.8c-.091.057-.091.2,0,.334s.243.187.317.13a.258.258,0,0,0,0-.351C6.313,20.778,6.165,20.722,6.075,20.8Z" transform="translate(0 -0.563)" fill="currentColor"/></svg>
