<svg xmlns="http://www.w3.org/2000/svg" width="27.355" height="22.217" viewBox="0 0 27.355 22.217"><path d="M24.543,8.918c.017.243.017.486.017.729A15.842,15.842,0,0,1,8.609,25.6,15.843,15.843,0,0,1,0,23.081a11.6,11.6,0,0,0,1.354.069,11.228,11.228,0,0,0,6.96-2.4,5.616,5.616,0,0,1-5.242-3.888,7.07,7.07,0,0,0,1.059.087,5.929,5.929,0,0,0,1.475-.191,5.607,5.607,0,0,1-4.5-5.5v-.069a5.646,5.646,0,0,0,2.534.712A5.615,5.615,0,0,1,1.909,4.4a15.936,15.936,0,0,0,11.56,5.867,6.329,6.329,0,0,1-.139-1.284,5.612,5.612,0,0,1,9.7-3.836A11.038,11.038,0,0,0,26.591,3.8a5.591,5.591,0,0,1-2.465,3.09,11.239,11.239,0,0,0,3.228-.868A12.051,12.051,0,0,1,24.543,8.918Z" transform="translate(0 -3.381)" fill="currentColor"/></svg>
