<svg xmlns="http://www.w3.org/2000/svg" xmlns:xlink="http://www.w3.org/1999/xlink" viewBox="0 0 352.56 352.56"><defs><radialGradient id="a682a397-fa85-4626-b26f-47e752af8464" cx="64.69" cy="33.26" r="367.98" gradientUnits="userSpaceOnUse"><stop offset="0" stop-color="#009da9"/><stop offset="0.84" stop-color="#005a7a"/><stop offset="0.99" stop-color="#005171"/></radialGradient><radialGradient id="bc3b7e42-4fd2-486e-843d-85193f98e69b" cx="64.69" cy="33.26" r="367.98" gradientUnits="userSpaceOnUse"><stop offset="0" stop-color="#009da9"/><stop offset="1" stop-color="#005171"/></radialGradient></defs><g id="ed8758a6-4b53-43d8-9176-0e7699487749" data-name="Calque 2"><g id="b60a8ede-f709-4540-9e80-6ff6e32344d3" data-name="Calque 2"><rect width="352.56" height="352.56" fill="none"/><circle cx="176.28" cy="176.28" r="176.28" fill="#fff"/><path d="M32.16,251.33c2.94-2.2,2.94-7.34,2.94-16.9V155.81c0-16.53-2.21-25.35-5.15-29.39s-5.85-7.32-18.88-11.69a176.38,176.38,0,0,0,7.56,140.4C26.83,254.3,30.17,253,32.16,251.33Z" fill="url(#a682a397-fa85-4626-b26f-47e752af8464)"/><path d="M340.24,111.56c-15.71,2-22.94,7.51-33.24,18.16l-44.82,45.93a599.26,599.26,0,0,0,47.39,57.68c7.35,8.08,16.91,15.43,21.68,17.64a24.8,24.8,0,0,0,3.93,1.71,176.4,176.4,0,0,0,5.06-141.12Z" fill="url(#bc3b7e42-4fd2-486e-843d-85193f98e69b)"/><path d="M144.22,160.58c0-13.22-2.57-24.24-5.88-30.12-5.51-8.82-16.17-12.86-29.39-12.86-28.66,0-40.79,14.33-45.2,24.25-1.83,4.41-3.67,12.86-3.67,21.67v72c0,8.82,0,13.6,2.94,16.17,2.57,2.2,8.08,3.31,22.78,4V268.6c-10.29-.73-29.39-.73-41.52-.73-7.08,0-12.72,0-18.56.12a176.41,176.41,0,0,0,118.5,81.61Z" fill="url(#bc3b7e42-4fd2-486e-843d-85193f98e69b)"/><path d="M296.35,255.37c-23.89-25-47-55.11-60.26-73.11,10.66-9.55,27.56-27.19,44.83-47.76,2.94-3.68,9.18-10.66,9.18-15.8,0-4-3.31-5.51-5.88-5.88-4-1.1-11.39-1.1-15.06-1.47V98.49c12.49.74,26.09.74,35.64.74,4.95,0,16.95,0,29.83-.44A176.76,176.76,0,0,0,232.52,9.22c-.21,45.54-.47,100.82-.47,117.56V235.53c0,8.82,0,13.6,3.31,16.17,2.2,2.2,7.34,3.31,22.78,4V268.6c-11.76-.73-29.4-.73-41.52-.73-12.86,0-21.31,0-34.54.73V255.74c15.07-1.1,19.84-2.2,22.42-4.41s2.57-7.34,2.57-16.9V2.74A176.06,176.06,0,0,0,14.94,105.25c9.86-5.48,20.18-8.59,28.24-8.59,8.82,0,14,5.87,15.06,19.84.37,4,.37,12.49.37,17.63l1.1.37c5.15-22,25.72-40,59.15-40,27.93,0,43.73,15.43,47.77,33.44,1.83,8.08,2.2,19.84,2.2,32.33V352.37c2.47.1,4.95.19,7.45.19a176.15,176.15,0,0,0,150.07-83.8C315.49,268,305.27,264.92,296.35,255.37Z" fill="url(#bc3b7e42-4fd2-486e-843d-85193f98e69b)"/></g></g>
</svg>